<svg width="31" height="20" viewBox="0 0 31 20" fill="none" xmlns="http://www.w3.org/2000/svg">
<path fill-rule="evenodd" clip-rule="evenodd" d="M6.99975 7.86875C6.99975 6.32356 5.7468 5.07203 4.19985 5.07203C1.88013 5.07203 0 3.19403 0 0.876953H1.39995C1.39995 2.42214 2.65291 3.67367 4.19985 3.67367C6.51957 3.67367 8.3997 5.55167 8.3997 7.86875C8.3997 9.41394 9.65266 10.6655 11.1996 10.6655C13.5193 10.6655 15.3995 12.5435 15.3995 14.8605C15.3995 16.4057 16.6524 17.6573 18.1994 17.6573V19.0556C15.8796 19.0556 13.9995 17.1776 13.9995 14.8605C13.9995 13.3154 12.7465 12.0638 11.1996 12.0638C8.87989 12.0638 6.99975 10.1858 6.99975 7.86875ZM24.8239 6.50535L30.7639 12.4386L29.7741 13.4272L23.8342 7.49399L24.8239 6.50535V6.50535Z" fill="#6C5CE7"/>
</svg>
